<?xml version="1.0" encoding="UTF-8"?><svg id="Full_w_Triangles" xmlns="http://www.w3.org/2000/svg" viewBox="0 0 576.707 299.314"><defs><style>.cls-1,.cls-2{fill:none;}.cls-1,.cls-2,.cls-3{stroke:#231f20;stroke-miterlimit:10;}.cls-4{fill:#d1e285;}.cls-5{fill:#93d3ca;}.cls-6{fill:#efe27f;}.cls-7{fill:#93a9cf;}.cls-8{fill:#ebb982;}.cls-2{stroke-width:8px;}.cls-9{fill:#cf91a6;}.cls-3{fill:rgba(35,31,32,.8);}.cls-10{fill:#94ce92;}.cls-11{fill:#ab93c5;}.cls-12{fill:#eda2a3;}.cls-13{fill:#87cae4;}.cls-14{fill:#ebba83;}</style></defs><g id="Black_Inner_Fills"><polygon class="cls-3" points="360.354 221.657 432.354 149.657 432.354 221.657 360.354 221.657"/><polygon class="cls-3" points="144.354 221.657 144.354 293.657 216.354 221.657 144.354 221.657"/><polygon class="cls-3" points="144.354 149.657 216.354 221.657 144.354 221.657 144.354 149.657"/><polygon class="cls-3" points="432.354 293.657 432.354 221.657 360.354 221.657 432.354 293.657"/></g><g id="M_Inner_Fills_Original_Colors_"><polygon class="cls-11" points="360.354 77.657 432.354 149.657 432.354 77.657 360.354 77.657"/><polygon class="cls-12" points="432.354 293.657 504.354 221.657 432.354 221.657 432.354 293.657"/><polygon class="cls-14" points="432.354 149.657 504.354 221.657 504.354 149.657 432.354 149.657"/><polygon class="cls-6" points="72.354 77.657 144.354 149.657 72.354 149.657 72.354 77.657"/><polygon class="cls-6" points="72.354 221.657 144.354 149.657 72.354 149.657 72.354 221.657"/><polygon class="cls-4" points="72.354 221.657 144.354 149.657 144.354 221.657 72.354 221.657"/><polygon class="cls-5" points="72.354 221.657 144.354 293.657 144.354 221.657 72.354 221.657"/><polygon id="_Path_" class="cls-7" points="432.354 5.657 504.354 77.657 432.354 77.657 432.354 5.657"/><polygon class="cls-10" points="432.354 149.657 504.354 77.657 432.354 77.657 432.354 149.657"/><polygon class="cls-13" points="360.354 77.657 432.354 5.657 432.354 77.657 360.354 77.657"/><polygon class="cls-8" points="432.354 149.657 504.354 77.657 504.354 149.657 432.354 149.657"/><polygon class="cls-9" points="432.354 149.657 432.354 221.657 504.354 221.657 432.354 149.657"/></g><g id="M_Inner_Outlines"><polygon class="cls-1" points="360.354 77.657 432.354 149.657 432.354 77.657 360.354 77.657"/><polygon class="cls-1" points="432.354 293.657 504.354 221.657 432.354 221.657 432.354 293.657"/><polygon class="cls-1" points="432.354 149.657 504.354 221.657 504.354 149.657 432.354 149.657"/><polygon class="cls-1" points="72.354 77.657 144.354 149.657 72.354 149.657 72.354 77.657"/><polygon class="cls-1" points="72.354 221.657 144.354 149.657 72.354 149.657 72.354 221.657"/><polygon class="cls-1" points="72.354 221.657 144.354 149.657 144.354 221.657 72.354 221.657"/><polygon class="cls-1" points="72.354 221.657 144.354 293.657 144.354 221.657 72.354 221.657"/><polygon id="_Path_-2" class="cls-1" points="432.354 5.657 504.354 77.657 432.354 77.657 432.354 5.657"/><polygon class="cls-1" points="432.354 149.657 504.354 77.657 432.354 77.657 432.354 149.657"/><polygon class="cls-1" points="360.354 77.657 432.354 5.657 432.354 77.657 360.354 77.657"/><polygon class="cls-1" points="432.354 149.657 504.354 77.657 504.354 149.657 432.354 149.657"/><polygon class="cls-1" points="432.354 149.657 432.354 221.657 504.354 221.657 432.354 149.657"/></g><polyline id="L2" class="cls-2" points="360.354 77.657 432.354 149.657 396.354 185.657 360.354 221.657"/><polyline id="L1" class="cls-2" points="216.354 221.657 144.354 149.657 72.354 77.657"/><polygon id="M_Outline" class="cls-2" points="504.354 77.657 504.354 149.657 504.354 221.657 432.354 293.657 360.354 221.657 288.354 293.657 216.354 221.657 144.354 293.657 72.354 221.657 72.354 149.657 72.354 149.821 72.354 77.821 72.354 77.657 144.354 5.657 216.354 77.657 288.354 149.657 360.354 77.657 432.354 5.657 504.354 77.657"/></svg>